<?xml version="1.0" encoding="utf-8"?>
<!-- Generator: Adobe Illustrator 23.1.0, SVG Export Plug-In . SVG Version: 6.00 Build 0)  -->
<svg version="1.1" id="Layer_1" xmlns="http://www.w3.org/2000/svg" xmlns:xlink="http://www.w3.org/1999/xlink" x="0px" y="0px"
	 viewBox="0 0 1080 1080" style="enable-background:new 0 0 1080 1080;" xml:space="preserve">
<style type="text/css">
	.st0{fill:#F3CA4D;}
	.st1{fill:#4F4F4F;}
	.st2{font-family:'BrushScriptMT';}
	.st3{font-size:70.7459px;}
	.st4{fill:none;stroke:#4F4F4F;stroke-width:5;stroke-miterlimit:10;}
</style>
<g>
	<path class="st0" d="M90.1,493.9l48.4-117.9h30.6l48.6,117.9h-32.3l-37.9-101.6h12.2l-37.9,101.6H90.1z M142.9,470.8l4.6-24.4h30.9
		l4.6,24.4H142.9z"/>
	<path class="st0" d="M234.5,485.9l-7.9-8.2V375.9h25.6l60.4,78.5h-12.1v-78.5h30.4v117.9h-25.6l-60.5-78.5h12.1v78.5h-14.8
		L234.5,485.9z"/>
	<path class="st0" d="M377.4,493.9v-91.5h-35v-26.5h102.1v26.5h-34.9v91.5H377.4z"/>
	<path class="st1" d="M469.4,493.9l-33-107l3-4.5l4.6-6.4h21.7L496.3,478h-16.5L512,375.9h29.1L571.5,478h-15.8l31.5-102.1h30.2
		l-36.3,117.9h-33.9l-25.9-86.8h9l-26.7,86.8H469.4z"/>
	<path class="st1" d="M681.5,496.2c-8.7,0-16.8-1.5-24.2-4.5c-7.5-3-13.9-7.3-19.4-12.9c-5.4-5.6-9.7-12.1-12.8-19.5
		c-3.1-7.5-4.6-15.6-4.6-24.5c0-8.8,1.5-16.9,4.6-24.3c3.1-7.4,7.3-13.9,12.8-19.5c5.4-5.6,11.9-9.9,19.3-12.9
		c7.4-3,15.5-4.5,24.3-4.5s16.9,1.5,24.3,4.5c7.4,3,13.8,7.3,19.3,12.8c5.4,5.5,9.7,12,12.8,19.4c3.1,7.4,4.6,15.6,4.6,24.4
		c0,9-1.5,17.2-4.5,24.7c-3,7.5-7.3,14-12.8,19.5c-5.5,5.5-11.9,9.8-19.4,12.8C698.3,494.7,690.2,496.2,681.5,496.2z M681.5,468.6
		c4.2,0,8.1-0.8,11.7-2.4c3.6-1.6,6.7-3.8,9.4-6.8c2.7-3,4.8-6.5,6.3-10.6c1.5-4.1,2.3-8.7,2.3-13.9c0-5.2-0.8-9.8-2.3-13.9
		c-1.5-4.1-3.6-7.6-6.3-10.6c-2.7-3-5.8-5.2-9.4-6.8c-3.6-1.6-7.5-2.4-11.7-2.4c-4.2,0-8.1,0.8-11.7,2.4c-3.6,1.6-6.8,3.8-9.5,6.8
		c-2.7,3-4.8,6.5-6.3,10.6c-1.5,4.1-2.2,8.7-2.2,13.9c0,5.2,0.7,9.8,2.2,13.9c1.5,4.1,3.6,7.6,6.3,10.6c2.7,3,5.9,5.3,9.5,6.8
		C673.4,467.8,677.3,468.6,681.5,468.6z"/>
	<path class="st1" d="M758.9,493.9V375.9h50c10,0,18.7,1.7,26,5.2c7.3,3.5,12.9,8.5,16.9,15.1c3.9,6.6,5.9,14.3,5.9,23.2
		c0,9.1-2,16.9-5.9,23.3c-3.9,6.4-9.5,11.3-16.9,14.7c-7.3,3.4-16,5.1-26,5.1H776l14-14.2v45.5H758.9z M789.9,452.3l-14-15.5h31
		c6.5,0,11.3-1.5,14.6-4.5c3.2-3,4.9-7.3,4.9-12.8c0-5.3-1.6-9.5-4.9-12.6c-3.2-3.1-8.1-4.6-14.6-4.6h-31l14-15.3V452.3z
		 M826.6,493.9l-27.3-43h33.1l27.4,43H826.6z"/>
	<path class="st1" d="M874.9,493.9V375.9h30.6v117.9H874.9z M902.5,467.8l-1.7-37.4l47.2-54.4h39.4l-52.1,54.8l-17.4,19.4
		L902.5,467.8z M948.4,493.9l-35.7-48.7l20.2-23.3l56.9,71.9H948.4z"/>
</g>
<g>
	<g>
		<path class="st1" d="M114,598.7c-4.5,0-8.6-0.8-12.4-2.4c-3.8-1.6-7.1-3.9-9.8-6.8c-2.8-2.9-4.9-6.3-6.5-10.3
			c-1.6-3.9-2.3-8.3-2.3-12.9c0-4.7,0.8-9,2.3-12.9c1.6-3.9,3.7-7.4,6.5-10.3c2.8-2.9,6.1-5.2,9.9-6.8c3.8-1.6,7.9-2.4,12.4-2.4
			c4.3,0,8.3,0.8,12.1,2.3c3.8,1.5,7,3.9,9.6,7l-4,4.3c-2.4-2.7-5.1-4.6-8-5.8c-2.9-1.2-6.1-1.8-9.5-1.8c-3.6,0-6.9,0.7-9.9,2
			c-3,1.3-5.7,3.2-8,5.6c-2.3,2.4-4,5.2-5.3,8.4c-1.3,3.2-1.9,6.7-1.9,10.5c0,3.8,0.6,7.3,1.9,10.5c1.3,3.2,3,6,5.3,8.4
			c2.3,2.4,4.9,4.2,8,5.6s6.3,2,9.9,2c3.4,0,6.5-0.6,9.5-1.8c2.9-1.2,5.6-3.2,8-5.8l4,4.3c-2.6,3.1-5.8,5.4-9.6,7
			C122.4,597.9,118.3,598.7,114,598.7z"/>
		<path class="st1" d="M175,598.7c-4.5,0-8.6-0.8-12.4-2.4c-3.8-1.6-7.1-3.9-9.9-6.8c-2.8-2.9-5-6.4-6.5-10.3
			c-1.6-3.9-2.3-8.2-2.3-12.9c0-4.7,0.8-9,2.3-12.9c1.6-3.9,3.7-7.3,6.5-10.3c2.8-2.9,6.1-5.2,9.9-6.8c3.8-1.6,7.9-2.4,12.4-2.4
			c4.5,0,8.6,0.8,12.4,2.4c3.8,1.6,7.1,3.9,9.9,6.8c2.8,2.9,5,6.3,6.5,10.3c1.6,3.9,2.3,8.3,2.3,12.9c0,4.7-0.8,9-2.3,12.9
			c-1.6,3.9-3.7,7.4-6.5,10.3c-2.8,2.9-6.1,5.2-9.9,6.8C183.6,597.9,179.5,598.7,175,598.7z M175,592.7c3.6,0,6.8-0.7,9.9-2
			c3-1.3,5.6-3.2,7.9-5.6c2.2-2.4,4-5.2,5.2-8.4c1.2-3.2,1.9-6.7,1.9-10.5c0-3.8-0.6-7.3-1.9-10.5c-1.2-3.2-3-6-5.2-8.4
			c-2.2-2.4-4.9-4.2-7.9-5.6c-3-1.3-6.3-2-9.9-2c-3.6,0-6.9,0.7-9.9,2c-3,1.3-5.7,3.2-8,5.6c-2.3,2.4-4,5.2-5.2,8.4
			c-1.2,3.2-1.9,6.7-1.9,10.5c0,3.8,0.6,7.3,1.9,10.5c1.2,3.2,3,6,5.2,8.4c2.3,2.4,4.9,4.2,8,5.6S171.4,592.7,175,592.7z"/>
		<path class="st1" d="M220.1,598.1v-63.7h5.2l40.9,55.3h-2.7v-55.3h6.2v63.7h-5.2l-40.8-55.3h2.7v55.3H220.1z"/>
		<path class="st1" d="M305.3,598.7c-4.4,0-8.6-0.8-12.7-2.3c-4-1.5-7.2-3.5-9.4-6l2.5-5.2c2.1,2.2,4.9,4,8.4,5.5
			c3.5,1.5,7.2,2.2,11.1,2.2c3.7,0,6.8-0.5,9.1-1.5c2.3-1,4.1-2.4,5.2-4c1.1-1.7,1.7-3.6,1.7-5.6c0-2.5-0.7-4.5-2-6
			c-1.3-1.5-3.1-2.7-5.2-3.6c-2.1-0.9-4.5-1.7-7.1-2.3c-2.6-0.7-5.2-1.4-7.8-2.1c-2.6-0.8-5-1.8-7.2-3c-2.2-1.3-3.9-3-5.3-5
			c-1.3-2.1-2-4.8-2-8.2c0-3.2,0.8-6.1,2.3-8.7c1.6-2.6,3.9-4.8,7.2-6.4c3.2-1.6,7.3-2.4,12.4-2.4c3.3,0,6.6,0.5,9.9,1.5
			s6.1,2.4,8.5,4.1l-2.1,5.4c-2.5-1.8-5.2-3.2-8.1-4c-2.9-0.8-5.6-1.3-8.3-1.3c-3.6,0-6.5,0.5-8.8,1.5c-2.3,1-4,2.4-5.1,4.1
			c-1.1,1.7-1.7,3.7-1.7,5.9c0,2.5,0.7,4.5,2,6c1.3,1.5,3.1,2.7,5.3,3.5c2.2,0.9,4.6,1.6,7.2,2.3c2.6,0.7,5.2,1.4,7.7,2.2
			c2.6,0.8,4.9,1.8,7.1,3c2.2,1.2,3.9,2.9,5.2,5s2,4.8,2,8.1c0,3.1-0.8,6-2.4,8.6c-1.6,2.6-4,4.8-7.2,6.4
			C314.5,597.9,310.4,598.7,305.3,598.7z"/>
		<path class="st1" d="M364.9,598.7c-7.6,0-13.5-2.3-17.9-7c-4.3-4.7-6.5-11.6-6.5-20.7v-36.5h6.3v36.2c0,7.5,1.6,13.1,4.7,16.7
			c3.2,3.6,7.6,5.4,13.4,5.4c5.8,0,10.3-1.8,13.5-5.4c3.2-3.6,4.7-9.1,4.7-16.7v-36.2h6.1v36.5c0,9.2-2.2,16.1-6.5,20.7
			C378.4,596.3,372.5,598.7,364.9,598.7z"/>
		<path class="st1" d="M408.1,598.1v-63.7h6.3v57.9h33.2v5.8H408.1z"/>
		<path class="st1" d="M469.5,598.1v-57.9h-20.8v-5.8h47.9v5.8h-20.8v57.9H469.5z"/>
		<path class="st1" d="M497.1,598.1l27.1-63.7h6.2l27.1,63.7h-6.6l-24.9-59.8h2.5l-24.9,59.8H497.1z M507.7,581.1l1.9-5.5h34.5
			l1.9,5.5H507.7z"/>
		<path class="st1" d="M567.3,598.1v-63.7h5.2l40.9,55.3h-2.7v-55.3h6.2v63.7h-5.2l-40.8-55.3h2.7v55.3H567.3z"/>
		<path class="st1" d="M647.6,598.1v-57.9h-20.8v-5.8h47.9v5.8h-20.8v57.9H647.6z"/>
		<path class="st1" d="M701,598.7c-4.4,0-8.6-0.8-12.7-2.3c-4-1.5-7.2-3.5-9.4-6l2.5-5.2c2.1,2.2,4.9,4,8.4,5.5
			c3.5,1.5,7.2,2.2,11.1,2.2c3.7,0,6.8-0.5,9.1-1.5c2.3-1,4.1-2.4,5.2-4c1.1-1.7,1.7-3.6,1.7-5.6c0-2.5-0.7-4.5-2-6
			c-1.3-1.5-3.1-2.7-5.2-3.6c-2.1-0.9-4.5-1.7-7.1-2.3c-2.6-0.7-5.2-1.4-7.8-2.1c-2.6-0.8-5-1.8-7.2-3c-2.2-1.3-3.9-3-5.3-5
			c-1.3-2.1-2-4.8-2-8.2c0-3.2,0.8-6.1,2.3-8.7c1.6-2.6,3.9-4.8,7.2-6.4c3.2-1.6,7.3-2.4,12.4-2.4c3.3,0,6.6,0.5,9.9,1.5
			s6.1,2.4,8.5,4.1l-2.1,5.4c-2.5-1.8-5.2-3.2-8.1-4c-2.9-0.8-5.6-1.3-8.3-1.3c-3.6,0-6.5,0.5-8.8,1.5c-2.3,1-4,2.4-5.1,4.1
			c-1.1,1.7-1.7,3.7-1.7,5.9c0,2.5,0.7,4.5,2,6c1.3,1.5,3.1,2.7,5.3,3.5c2.2,0.9,4.6,1.6,7.2,2.3c2.6,0.7,5.2,1.4,7.7,2.2
			c2.6,0.8,4.9,1.8,7.1,3c2.2,1.2,3.9,2.9,5.2,5s2,4.8,2,8.1c0,3.1-0.8,6-2.4,8.6c-1.6,2.6-4,4.8-7.2,6.4
			C710.3,597.9,706.1,598.7,701,598.7z"/>
	</g>
</g>
<image style="overflow:visible;" width="393" height="212" xlink:href="46E843D2.png"  transform="matrix(0.6982 0 0 0.6982 727.0251 496.0721)">
</image>
<g>
	<text transform="matrix(0.9304 0 0 1 342.0188 682.5345)" class="st1 st2 st3">Ethical Excellence</text>
	<line class="st4" x1="232.9" y1="665.7" x2="326.6" y2="665.7"/>
	<line class="st4" x1="753.4" y1="665.7" x2="847.1" y2="665.7"/>
</g>
</svg>
